<svg xmlns="http://www.w3.org/2000/svg" width="846" height="190" viewBox="0 0 846 190"><rect width="846" height="190" fill="#fff"/><rect width="846" height="55" fill="#cbd3df"/><path fill="#eef1f5" d="M0 55h846v27H0zm0 54h846v27H0zm0 54h846v27H0z"/><path fill="#e3e7ed" d="M0 82h846v27H0zm0 54h846v27H0z"/><g font-family="Arial,sans-serif" fill="#1f2937"><g font-size="11" font-weight="700"><text x="55" y="18">machine_id</text><text x="170" y="18">machine_name</text><text x="335" y="18">machine_type</text><text x="480" y="18">sector_name</text><text x="690" y="18">total_failures</text></g><g font-size="10"><text x="55" y="38">character varying (10)</text><text x="170" y="38">character varying (100)</text><text x="335" y="38">character varying (80)</text><text x="480" y="38">character varying (50)</text><text x="690" y="38">bigint</text></g><g font-size="11"><text x="10" y="73">1</text><text x="10" y="100">2</text><text x="10" y="127">3</text><text x="10" y="154">4</text><text x="10" y="181">5</text><text x="55" y="73">TEC-020</text><text x="55" y="100">ACA-005</text><text x="55" y="127">FIA-008</text><text x="55" y="154">TIN-004</text><text x="55" y="181">TEC-012</text><text x="170" y="73">Urdideira 20</text><text x="170" y="100">Rama 05</text><text x="170" y="127">Filatório 08</text><text x="170" y="154">Jet de Tingimento 04</text><text x="170" y="181">Engomadeira 12</text><text x="335" y="73">Urdideira</text><text x="335" y="100">Rama</text><text x="335" y="127">Filatório</text><text x="335" y="154">Jet de Tingimento</text><text x="335" y="181">Engomadeira</text><text x="480" y="73">Tecelagem</text><text x="480" y="100">Acabamento</text><text x="480" y="127">Fiação</text><text x="480" y="154">Tingimento</text><text x="480" y="181">Tecelagem</text><text x="760" y="73">33</text><text x="760" y="100">23</text><text x="760" y="127">22</text><text x="760" y="154">21</text><text x="760" y="181">21</text></g></g><g stroke="#cbd5e1"><path d="M42 0v190M150 0v190M315 0v190M460 0v190M660 0v190M0 55h846M0 82h846M0 109h846M0 136h846M0 163h846"/></g></svg>