<svg xmlns="http://www.w3.org/2000/svg" width="333" height="138" viewBox="0 0 333 138"><rect width="333" height="138" fill="#fff"/><rect width="333" height="42" fill="#cbd3df"/><path fill="#eef1f5" d="M0 42h333v24H0zm0 48h333v24H0z"/><path fill="#e3e7ed" d="M0 66h333v24H0zm0 48h333v24H0z"/><g font-family="Arial,sans-serif" fill="#1f2937"><text x="54" y="17" font-size="12" font-weight="700">sector_name</text><text x="54" y="34" font-size="11">character varying (50)</text><text x="218" y="17" font-size="12" font-weight="700">total_failures</text><text x="218" y="34" font-size="11">bigint</text><g font-size="12"><text x="13" y="59">1</text><text x="13" y="83">2</text><text x="13" y="107">3</text><text x="13" y="131">4</text><text x="53" y="59">Tecelagem</text><text x="53" y="83">Acabamento</text><text x="53" y="107">Fiação</text><text x="53" y="131">Tingimento</text><text x="294" y="59">244</text><text x="294" y="83">179</text><text x="294" y="107">169</text><text x="294" y="131">128</text></g></g><g stroke="#cbd5e1"><path d="M42 0v138M207 0v138M0 42h333M0 66h333M0 90h333M0 114h333"/></g></svg>