<svg xmlns="http://www.w3.org/2000/svg" width="282" height="185" viewBox="0 0 282 185"><rect width="282" height="185" fill="#fff"/><rect width="282" height="38" fill="#cbd3df"/><path fill="#eef1f5" d="M0 38h282v24H0zm0 48h282v24H0zm0 48h282v24H0z"/><path fill="#e3e7ed" d="M0 62h282v24H0zm0 48h282v24H0zm0 48h282v27H0z"/><g font-family="Arial,sans-serif" fill="#1f2937"><text x="48" y="16" font-size="11" font-weight="700">failure_category</text><text x="48" y="31" font-size="10">character varying (40)</text><text x="191" y="16" font-size="11" font-weight="700">total_failures</text><text x="191" y="31" font-size="10">bigint</text><g font-size="11"><text x="10" y="54">1</text><text x="10" y="78">2</text><text x="10" y="102">3</text><text x="10" y="126">4</text><text x="10" y="150">5</text><text x="10" y="175">6</text><text x="47" y="54">Mecânica</text><text x="47" y="78">Elétrica</text><text x="47" y="102">Automação</text><text x="47" y="126">Operacional</text><text x="47" y="150">Pneumática</text><text x="47" y="175">Hidráulica</text><text x="245" y="54">270</text><text x="245" y="78">192</text><text x="245" y="102">105</text><text x="251" y="126">57</text><text x="251" y="150">54</text><text x="251" y="175">42</text></g></g><g stroke="#cbd5e1"><path d="M39 0v185M181 0v185M0 38h282M0 62h282M0 86h282M0 110h282M0 134h282M0 158h282"/></g></svg>