<svg xmlns="http://www.w3.org/2000/svg" width="484" height="127" viewBox="0 0 484 127"><rect width="484" height="127" fill="#fff"/><rect width="484" height="48" fill="#cbd3df"/><rect y="48" width="484" height="26" fill="#eef1f5"/><rect y="74" width="484" height="26" fill="#e3e7ed"/><rect y="100" width="484" height="27" fill="#eef1f5"/><g font-family="Arial,sans-serif" fill="#1f2937"><g font-size="11" font-weight="700"><text x="48" y="17">maintenance_type</text><text x="210" y="17">total_orders</text><text x="330" y="17">total_maintenance_cost</text></g><g font-size="10"><text x="48" y="34">character varying (20)</text><text x="210" y="34">bigint</text><text x="330" y="34">numeric</text></g><g font-size="11"><text x="10" y="66">1</text><text x="10" y="92">2</text><text x="10" y="118">3</text><text x="48" y="66">Corretiva</text><text x="48" y="92">Preventiva</text><text x="48" y="118">Preditiva</text><text x="250" y="66">720</text><text x="250" y="92">630</text><text x="250" y="118">150</text><text x="395" y="66">2247229.42</text><text x="395" y="92">1150353.05</text><text x="401" y="118">196554.06</text></g></g><g stroke="#cbd5e1"><path d="M38 0v127M190 0v127M310 0v127M0 48h484M0 74h484M0 100h484"/></g></svg>