<svg xmlns="http://www.w3.org/2000/svg" width="395" height="179" viewBox="0 0 395 179"><rect width="395" height="179" fill="#fff"/><rect width="395" height="48" fill="#cbd3df"/><path fill="#eef1f5" d="M0 48h395v32H0zm0 64h395v32H0z"/><path fill="#e3e7ed" d="M0 80h395v32H0zm0 64h395v35H0z"/><g font-family="Arial,sans-serif" fill="#1f2937"><g font-size="11" font-weight="700"><text x="75" y="17">preventive_status</text><text x="265" y="17">total_preventives</text></g><g font-size="10"><text x="75" y="34">character varying (20)</text><text x="265" y="34">bigint</text></g><g font-size="12"><text x="20" y="69">1</text><text x="20" y="101">2</text><text x="20" y="133">3</text><text x="20" y="165">4</text><text x="75" y="69">No prazo</text><text x="75" y="101">Atrasada</text><text x="75" y="133">Pendente</text><text x="75" y="165">Cancelada</text><text x="350" y="69">1137</text><text x="360" y="101">145</text><text x="365" y="133">95</text><text x="365" y="165">23</text></g></g><g stroke="#cbd5e1"><path d="M60 0v179M250 0v179M0 48h395M0 80h395M0 112h395M0 144h395"/></g></svg>