<svg xmlns="http://www.w3.org/2000/svg" width="1400" height="1440" viewBox="0 0 1400 1440" role="img" aria-labelledby="title desc">
<title id="title">Resultados das consultas do Case 03 no pgAdmin</title>
<desc id="desc">Resultados de falhas, máquinas, custos, preventivas, produção e refugo, reproduzidos a partir do Data Output do pgAdmin.</desc>
<style>
.bg{fill:#eef2f7}.card{fill:#fff;stroke:#c7d0dc;stroke-width:2}.bar{fill:#f4f6f9;stroke:#d5dde7}.hdr{fill:#dce3ec;stroke:#b7c2d0}.row{fill:#fff;stroke:#d6dde6}.alt{fill:#f5f7fa;stroke:#d6dde6}.title{font:700 26px Arial,sans-serif;fill:#24364b}.tab{font:700 14px Arial,sans-serif;fill:#236da5}.sub{font:600 13px Arial,sans-serif;fill:#687586}.head{font:700 14px Consolas,monospace;fill:#26384b}.cell{font:15px Arial,sans-serif;fill:#273444}.ok{font:700 13px Arial,sans-serif;fill:#25813e}
</style>
<rect class="bg" width="1400" height="1440"/>
<!-- Falhas por setor -->
<g transform="translate(15 15)"><rect class="card" width="675" height="445" rx="14"/><text class="title" x="22" y="38">Falhas por setor</text><rect class="bar" x="20" y="55" width="635" height="38" rx="5"/><text class="tab" x="34" y="80">Data Output</text><text class="sub" x="145" y="80">Messages</text><text class="sub" x="232" y="80">Notifications</text><rect class="hdr" x="20" y="112" width="635" height="52"/><text class="head" x="34" y="143">sector_name</text><text class="head" x="455" y="143">total_failures</text><rect class="row" x="20" y="164" width="635" height="38"/><text class="cell" x="34" y="189">Tecelagem</text><text class="cell" x="635" y="189" text-anchor="end">244</text><rect class="alt" x="20" y="202" width="635" height="38"/><text class="cell" x="34" y="227">Acabamento</text><text class="cell" x="635" y="227" text-anchor="end">179</text><rect class="row" x="20" y="240" width="635" height="38"/><text class="cell" x="34" y="265">Fiação</text><text class="cell" x="635" y="265" text-anchor="end">169</text><rect class="alt" x="20" y="278" width="635" height="38"/><text class="cell" x="34" y="303">Tingimento</text><text class="cell" x="635" y="303" text-anchor="end">128</text><text class="ok" x="22" y="350">Successfully run · Total rows: 4</text></g>
<!-- Categorias -->
<g transform="translate(710 15)"><rect class="card" width="675" height="445" rx="14"/><text class="title" x="22" y="38">Categorias de falha</text><rect class="bar" x="20" y="55" width="635" height="38" rx="5"/><text class="tab" x="34" y="80">Data Output</text><text class="sub" x="145" y="80">Messages</text><text class="sub" x="232" y="80">Notifications</text><rect class="hdr" x="20" y="112" width="635" height="52"/><text class="head" x="34" y="143">failure_category</text><text class="head" x="455" y="143">total_failures</text><rect class="row" x="20" y="164" width="635" height="38"/><text class="cell" x="34" y="189">Mecânica</text><text class="cell" x="635" y="189" text-anchor="end">270</text><rect class="alt" x="20" y="202" width="635" height="38"/><text class="cell" x="34" y="227">Elétrica</text><text class="cell" x="635" y="227" text-anchor="end">192</text><rect class="row" x="20" y="240" width="635" height="38"/><text class="cell" x="34" y="265">Automação</text><text class="cell" x="635" y="265" text-anchor="end">105</text><rect class="alt" x="20" y="278" width="635" height="38"/><text class="cell" x="34" y="303">Operacional</text><text class="cell" x="635" y="303" text-anchor="end">57</text><rect class="row" x="20" y="316" width="635" height="38"/><text class="cell" x="34" y="341">Pneumática</text><text class="cell" x="635" y="341" text-anchor="end">54</text><rect class="alt" x="20" y="354" width="635" height="38"/><text class="cell" x="34" y="379">Hidráulica</text><text class="cell" x="635" y="379" text-anchor="end">42</text><text class="ok" x="22" y="425">Successfully run · Total rows: 6</text></g>
<!-- Máquinas -->
<g transform="translate(15 480)"><rect class="card" width="675" height="445" rx="14"/><text class="title" x="22" y="38">Máquinas com mais falhas</text><rect class="bar" x="20" y="55" width="635" height="38" rx="5"/><text class="tab" x="34" y="80">Data Output</text><text class="sub" x="145" y="80">Messages</text><text class="sub" x="232" y="80">Notifications</text><rect class="hdr" x="20" y="112" width="635" height="52"/><text class="head" x="28" y="143">machine_id</text><text class="head" x="125" y="143">machine_name</text><text class="head" x="280" y="143">machine_type</text><text class="head" x="430" y="143">sector_name</text><text class="head" x="650" y="143" text-anchor="end">failures</text><rect class="row" x="20" y="164" width="635" height="38"/><text class="cell" x="28" y="189">TEC-020</text><text class="cell" x="125" y="189">Urdideira 20</text><text class="cell" x="280" y="189">Urdideira</text><text class="cell" x="430" y="189">Tecelagem</text><text class="cell" x="650" y="189" text-anchor="end">33</text><rect class="alt" x="20" y="202" width="635" height="38"/><text class="cell" x="28" y="227">ACA-005</text><text class="cell" x="125" y="227">Rama 05</text><text class="cell" x="280" y="227">Rama</text><text class="cell" x="430" y="227">Acabamento</text><text class="cell" x="650" y="227" text-anchor="end">23</text><rect class="row" x="20" y="240" width="635" height="38"/><text class="cell" x="28" y="265">FIA-008</text><text class="cell" x="125" y="265">Filatório 08</text><text class="cell" x="280" y="265">Filatório</text><text class="cell" x="430" y="265">Fiação</text><text class="cell" x="650" y="265" text-anchor="end">22</text><rect class="alt" x="20" y="278" width="635" height="38"/><text class="cell" x="28" y="303">TIN-004</text><text class="cell" x="125" y="303">Jet Tingimento 04</text><text class="cell" x="280" y="303">Jet Tingimento</text><text class="cell" x="430" y="303">Tingimento</text><text class="cell" x="650" y="303" text-anchor="end">21</text><rect class="row" x="20" y="316" width="635" height="38"/><text class="cell" x="28" y="341">TEC-012</text><text class="cell" x="125" y="341">Engomadeira 12</text><text class="cell" x="280" y="341">Engomadeira</text><text class="cell" x="430" y="341">Tecelagem</text><text class="cell" x="650" y="341" text-anchor="end">21</text><text class="ok" x="22" y="395">Successfully run · Total rows: 5</text></g>
<!-- Custos -->
<g transform="translate(710 480)"><rect class="card" width="675" height="445" rx="14"/><text class="title" x="22" y="38">Custos por tipo de manutenção</text><rect class="bar" x="20" y="55" width="635" height="38" rx="5"/><text class="tab" x="34" y="80">Data Output</text><text class="sub" x="145" y="80">Messages</text><text class="sub" x="232" y="80">Notifications</text><rect class="hdr" x="20" y="112" width="635" height="52"/><text class="head" x="34" y="143">maintenance_type</text><text class="head" x="300" y="143">total_orders</text><text class="head" x="650" y="143" text-anchor="end">total_maintenance_cost</text><rect class="row" x="20" y="164" width="635" height="38"/><text class="cell" x="34" y="189">Corretiva</text><text class="cell" x="390" y="189" text-anchor="end">720</text><text class="cell" x="650" y="189" text-anchor="end">2247229.42</text><rect class="alt" x="20" y="202" width="635" height="38"/><text class="cell" x="34" y="227">Preventiva</text><text class="cell" x="390" y="227" text-anchor="end">630</text><text class="cell" x="650" y="227" text-anchor="end">1150353.05</text><rect class="row" x="20" y="240" width="635" height="38"/><text class="cell" x="34" y="265">Preditiva</text><text class="cell" x="390" y="265" text-anchor="end">150</text><text class="cell" x="650" y="265" text-anchor="end">196554.06</text><text class="ok" x="22" y="315">Successfully run · Total rows: 3</text></g>
<!-- Preventivas -->
<g transform="translate(15 945)"><rect class="card" width="675" height="445" rx="14"/><text class="title" x="22" y="38">Situação das preventivas</text><rect class="bar" x="20" y="55" width="635" height="38" rx="5"/><text class="tab" x="34" y="80">Data Output</text><text class="sub" x="145" y="80">Messages</text><text class="sub" x="232" y="80">Notifications</text><rect class="hdr" x="20" y="112" width="635" height="52"/><text class="head" x="34" y="143">preventive_status</text><text class="head" x="455" y="143">total_preventives</text><rect class="row" x="20" y="164" width="635" height="38"/><text class="cell" x="34" y="189">No prazo</text><text class="cell" x="635" y="189" text-anchor="end">1137</text><rect class="alt" x="20" y="202" width="635" height="38"/><text class="cell" x="34" y="227">Atrasada</text><text class="cell" x="635" y="227" text-anchor="end">145</text><rect class="row" x="20" y="240" width="635" height="38"/><text class="cell" x="34" y="265">Pendente</text><text class="cell" x="635" y="265" text-anchor="end">95</text><rect class="alt" x="20" y="278" width="635" height="38"/><text class="cell" x="34" y="303">Cancelada</text><text class="cell" x="635" y="303" text-anchor="end">23</text><text class="ok" x="22" y="350">Successfully run · Total rows: 4</text></g>
<!-- Produção -->
<g transform="translate(710 945)"><rect class="card" width="675" height="445" rx="14"/><text class="title" x="22" y="38">Produção e refugo</text><rect class="bar" x="20" y="55" width="635" height="38" rx="5"/><text class="tab" x="34" y="80">Data Output</text><text class="sub" x="145" y="80">Messages</text><text class="sub" x="232" y="80">Notifications</text><rect class="hdr" x="20" y="112" width="635" height="52"/><text class="head" x="34" y="143">sector_name</text><text class="head" x="300" y="143">total_production</text><text class="head" x="650" y="143" text-anchor="end">total_scrap</text><rect class="row" x="20" y="164" width="635" height="38"/><text class="cell" x="34" y="189">Tecelagem</text><text class="cell" x="470" y="189" text-anchor="end">8198767.95</text><text class="cell" x="650" y="189" text-anchor="end">165450.17</text><rect class="alt" x="20" y="202" width="635" height="38"/><text class="cell" x="34" y="227">Fiação</text><text class="cell" x="470" y="227" text-anchor="end">7779000.12</text><text class="cell" x="650" y="227" text-anchor="end">128812.09</text><rect class="row" x="20" y="240" width="635" height="38"/><text class="cell" x="34" y="265">Acabamento</text><text class="cell" x="470" y="265" text-anchor="end">6743209.19</text><text class="cell" x="650" y="265" text-anchor="end">98396.79</text><rect class="alt" x="20" y="278" width="635" height="38"/><text class="cell" x="34" y="303">Tingimento</text><text class="cell" x="470" y="303" text-anchor="end">3886889.79</text><text class="cell" x="650" y="303" text-anchor="end">91919.71</text><text class="ok" x="22" y="350">Successfully run · Total rows: 4</text></g>
</svg>