<svg xmlns="http://www.w3.org/2000/svg" width="436" height="154" viewBox="0 0 436 154"><rect width="436" height="154" fill="#fff"/><rect width="436" height="48" fill="#cbd3df"/><path fill="#eef1f5" d="M0 48h436v26H0zm0 52h436v26H0z"/><path fill="#e3e7ed" d="M0 74h436v26H0zm0 52h436v28H0z"/><g font-family="Arial,sans-serif" fill="#1f2937"><g font-size="11" font-weight="700"><text x="50" y="17">sector_name</text><text x="185" y="17">total_production</text><text x="335" y="17">total_scrap</text></g><g font-size="10"><text x="50" y="34">character varying (50)</text><text x="185" y="34">numeric</text><text x="335" y="34">numeric</text></g><g font-size="11"><text x="10" y="66">1</text><text x="10" y="92">2</text><text x="10" y="118">3</text><text x="10" y="146">4</text><text x="50" y="66">Tecelagem</text><text x="50" y="92">Fiação</text><text x="50" y="118">Acabamento</text><text x="50" y="146">Tingimento</text><text x="210" y="66">8198767.95</text><text x="210" y="92">7779000.12</text><text x="210" y="118">6743209.19</text><text x="210" y="146">3886889.79</text><text x="355" y="66">165450.17</text><text x="355" y="92">128812.09</text><text x="355" y="118">98396.79</text><text x="355" y="146">91919.71</text></g></g><g stroke="#cbd5e1"><path d="M38 0v154M165 0v154M315 0v154M0 48h436M0 74h436M0 100h436M0 126h436"/></g></svg>