<svg xmlns="http://www.w3.org/2000/svg" width="1400" height="420" viewBox="0 0 1400 420" role="img" aria-labelledby="title desc">
  <title id="title">Karine de Assis — Business Analytics, Operational Excellence and Digital Transformation</title>
  <desc id="desc">Professional profile banner in navy and copper, with a subtle analytical and operational visual language.</desc>
  <defs>
    <linearGradient id="bg" x1="0" y1="0" x2="1" y2="1">
      <stop offset="0" stop-color="#071522"/>
      <stop offset="0.62" stop-color="#0b2233"/>
      <stop offset="1" stop-color="#102d42"/>
    </linearGradient>
    <linearGradient id="accent" x1="0" y1="0" x2="1" y2="0">
      <stop offset="0" stop-color="#b66f2d"/>
      <stop offset="1" stop-color="#e2a35f"/>
    </linearGradient>
    <filter id="soft" x="-20%" y="-20%" width="140%" height="140%">
      <feGaussianBlur stdDeviation="18"/>
    </filter>
  </defs>

  <rect width="1400" height="420" rx="26" fill="url(#bg)"/>
  <circle cx="1190" cy="80" r="150" fill="#1c4a67" opacity="0.20" filter="url(#soft)"/>
  <circle cx="1280" cy="320" r="190" fill="#8c5527" opacity="0.10" filter="url(#soft)"/>

  <g opacity="0.36" stroke="#557286" fill="none">
    <path d="M890 70 C1010 50, 1090 125, 1190 115 S1340 65, 1390 120"/>
    <path d="M850 130 C980 115, 1080 195, 1180 185 S1320 135, 1400 205"/>
    <path d="M900 260 C990 220, 1075 255, 1160 225 S1300 245, 1395 190"/>
    <circle cx="985" cy="101" r="5" fill="#d18a3f" stroke="none"/>
    <circle cx="1126" cy="175" r="5" fill="#d18a3f" stroke="none"/>
    <circle cx="1270" cy="148" r="5" fill="#d18a3f" stroke="none"/>
    <circle cx="1060" cy="245" r="5" fill="#d18a3f" stroke="none"/>
    <circle cx="1234" cy="231" r="5" fill="#d18a3f" stroke="none"/>
  </g>

  <g opacity="0.20" fill="#d18a3f">
    <circle cx="1070" cy="315" r="3"/><circle cx="1100" cy="315" r="3"/><circle cx="1130" cy="315" r="3"/><circle cx="1160" cy="315" r="3"/>
    <circle cx="1070" cy="345" r="3"/><circle cx="1100" cy="345" r="3"/><circle cx="1130" cy="345" r="3"/><circle cx="1160" cy="345" r="3"/>
    <circle cx="1190" cy="315" r="3"/><circle cx="1220" cy="315" r="3"/><circle cx="1250" cy="315" r="3"/><circle cx="1280" cy="315" r="3"/>
    <circle cx="1190" cy="345" r="3"/><circle cx="1220" cy="345" r="3"/><circle cx="1250" cy="345" r="3"/><circle cx="1280" cy="345" r="3"/>
  </g>

  <rect x="70" y="66" width="94" height="5" rx="2.5" fill="url(#accent)"/>
  <text x="70" y="128" fill="#aebec9" font-family="Arial, Helvetica, sans-serif" font-size="20" font-weight="700" letter-spacing="3">BUSINESS • OPERATIONS • DIGITAL</text>
  <text x="70" y="216" fill="#f4f7fa" font-family="Arial, Helvetica, sans-serif" font-size="62" font-weight="700">KARINE DE ASSIS</text>
  <text x="70" y="270" fill="#d18a3f" font-family="Arial, Helvetica, sans-serif" font-size="27" font-weight="700">Business Analytics · Operational Excellence · Digital Transformation</text>
  <text x="70" y="326" fill="#c8d3db" font-family="Arial, Helvetica, sans-serif" font-size="22">Transformando operações complexas em processos mais claros, dados mais confiáveis e melhores decisões.</text>

  <rect x="70" y="365" width="1260" height="1" fill="#3b566a" opacity="0.65"/>
</svg>